<svg width="32.000000" height="32.000000" viewBox="0 0 32 32" fill="none" xmlns="http://www.w3.org/2000/svg" xmlns:xlink="http://www.w3.org/1999/xlink">
	<desc>
			Created with Pixso.
	</desc>
	<defs>
		<filter id="filter_13_1183_dd" x="0.000000" y="0.000000" width="32.000000" height="32.000000" filterUnits="userSpaceOnUse" color-interpolation-filters="sRGB">
			<feFlood flood-opacity="0" result="BackgroundImageFix"/>
			<feColorMatrix in="SourceAlpha" type="matrix" values="0 0 0 0 0 0 0 0 0 0 0 0 0 0 0 0 0 0 127 0" result="hardAlpha"/>
			<feOffset dx="0" dy="2"/>
			<feGaussianBlur stdDeviation="1.33333"/>
			<feComposite in2="hardAlpha" operator="out" k2="-1" k3="1"/>
			<feColorMatrix type="matrix" values="0 0 0 0 0 0 0 0 0 0 0 0 0 0 0 0 0 0 0.32 0"/>
			<feBlend mode="normal" in2="BackgroundImageFix" result="effect_dropShadow_1"/>
			<feColorMatrix in="SourceAlpha" type="matrix" values="0 0 0 0 0 0 0 0 0 0 0 0 0 0 0 0 0 0 127 0" result="hardAlpha"/>
			<feOffset dx="0" dy="0"/>
			<feGaussianBlur stdDeviation="0.333333"/>
			<feComposite in2="hardAlpha" operator="out" k2="-1" k3="1"/>
			<feColorMatrix type="matrix" values="0 0 0 0 0 0 0 0 0 0 0 0 0 0 0 0 0 0 0.039 0"/>
			<feBlend mode="normal" in2="effect_dropShadow_1" result="effect_dropShadow_2"/>
			<feBlend mode="normal" in="SourceGraphic" in2="effect_dropShadow_2" result="shape"/>
		</filter>
		<clipPath id="clip13_1182">
			<rect id="Single color/Bonus" rx="-0.500000" width="15.000000" height="15.000000" transform="translate(8.500000 6.500000)" fill="white" fill-opacity="0"/>
		</clipPath>
		<linearGradient x1="4.000004" y1="2.000004" x2="27.999992" y2="26.000004" id="paint_linear_13_1183_0" gradientUnits="userSpaceOnUse">
			<stop stop-color="#494C6A"/>
			<stop offset="1.000000" stop-color="#252638"/>
		</linearGradient>
	</defs>
	<g filter="url(#filter_13_1183_dd)">
		<rect id="Component 1" rx="11.500000" width="23.000000" height="23.000000" transform="translate(4.500000 2.500000)" fill="url(#paint_linear_13_1183_0)" fill-opacity="1.000000"/>
		<rect id="Single color/Bonus" rx="-0.500000" width="15.000000" height="15.000000" transform="translate(8.500000 6.500000)" fill="#FFFFFF" fill-opacity="0"/>
		<g clip-path="url(#clip13_1182)">
			<path id="Vector" d="M21.33 9.99L19.87 9.99C19.95 9.79 20 9.56 20 9.33C20 8.22 19.1 7.33 18 7.33C17.29 7.33 16.69 7.69 16.33 8.23L16 8.67L15.66 8.22C15.3 7.69 14.7 7.33 14 7.33C12.89 7.33 12 8.22 12 9.33C12 9.56 12.04 9.79 12.12 9.99L10.66 9.99C9.92 9.99 9.34 10.59 9.34 11.33L9.33 18.66C9.33 19.4 9.92 19.99 10.66 19.99L21.33 19.99C22.07 19.99 22.66 19.4 22.66 18.66L22.66 11.33C22.66 10.59 22.07 9.99 21.33 9.99ZM18 8.66C18.36 8.66 18.66 8.96 18.66 9.33C18.66 9.69 18.36 9.99 18 9.99C17.63 9.99 17.33 9.69 17.33 9.33C17.33 8.96 17.63 8.66 18 8.66ZM14 8.66C14.36 8.66 14.66 8.96 14.66 9.33C14.66 9.69 14.36 9.99 14 9.99C13.63 9.99 13.33 9.69 13.33 9.33C13.33 8.96 13.63 8.66 14 8.66ZM21.33 18.66L10.66 18.66L10.66 17.33L21.33 17.33L21.33 18.66ZM21.33 15.33L10.66 15.33L10.66 11.99C10.66 11.63 10.96 11.33 11.33 11.33L14.05 11.33L13.06 12.67C12.84 12.97 12.91 13.39 13.21 13.61C13.5 13.82 13.92 13.75 14.14 13.46L16 10.93L17.86 13.46C18.07 13.75 18.49 13.82 18.78 13.61C19.08 13.39 19.15 12.97 18.93 12.67L17.94 11.33L20.66 11.33C21.03 11.33 21.33 11.63 21.33 11.99L21.33 15.33Z" fill="#FFD633" fill-opacity="1.000000" fill-rule="nonzero"/>
		</g>
	</g>
</svg>
